<svg xmlns="http://www.w3.org/2000/svg" xmlns:xlink="http://www.w3.org/1999/xlink" width="72.94" height="111.48"><defs><defs><path id="SVGID_1_" d="m72 36.55c0 19.88-16.12 36-36 36 -19.88 0-36-16.12-36-36 0-19.89 16.12-36 36-36 19.88 0 36 16.12 36 36z"/></defs><clipPath id="SVGID_2_"><use xlink:href="#SVGID_1_" height="111.48" width="72.94" y="29.72" x="0" id="use33"/></clipPath></defs><title>background</title><rect fill="none" id="canvas_background" height="402" width="582" y="-1" x="-1"/><title>Layer 1</title><g id="g3685" transform="matrix(0.9992427,0,0,0.99924,-0.0039033418,0.3028104) "><g id="g35" clip-path="url(#SVGID_2_)"><path fill="#b2b4b6" id="path37" d="m72.95 66.2c0 20.14-16.33 36.47-36.47 36.47 -20.14 0-36.47-16.33-36.47-36.47 0-20.15 16.33-36.48 36.47-36.48 20.14 0 36.47 16.33 36.47 36.48z"/><path fill="#b2b4b7" id="path39" d="m72.88 66.18c0 20.08-16.28 36.37-36.36 36.37 -20.08 0-36.36-16.28-36.36-36.37 0-20.09 16.28-36.37 36.36-36.37 20.08 0 36.36 16.28 36.36 36.37z"/><path fill="#b2b4b7" id="path41" d="m72.81 66.15c0 20.02-16.23 36.26-36.26 36.26 -20.02 0-36.26-16.23-36.26-36.26 0-20.03 16.23-36.26 36.26-36.26 20.03 0 36.26 16.23 36.26 36.26z"/><path fill="#b3b5b8" id="path43" d="m72.74 66.13c0 19.96-16.18 36.15-36.15 36.15 -19.97 0-36.15-16.19-36.15-36.15 0-19.97 16.18-36.16 36.15-36.16 19.96 0 36.15 16.19 36.15 36.16z"/><path fill="#b4b6b8" id="path45" d="m72.67 66.11c0 19.91-16.14 36.04-36.04 36.04 -19.91 0-36.04-16.14-36.04-36.04 0-19.91 16.14-36.05 36.04-36.05 19.91 0 36.04 16.14 36.04 36.05z"/><path fill="#b5b7b9" id="path47" d="m72.6 66.09c0 19.85-16.09 35.93-35.94 35.93 -19.85 0-35.94-16.09-35.94-35.93 0-19.85 16.09-35.94 35.94-35.94 19.85 0 35.94 16.09 35.94 35.94z"/><path fill="#b6b8ba" id="path49" d="m72.53 66.07c0 19.79-16.04 35.83-35.83 35.83 -19.79 0-35.83-16.04-35.83-35.83 0-19.79 16.04-35.83 35.83-35.83 19.79 0 35.83 16.04 35.83 35.83z"/><path fill="#b7b9bb" id="path51" d="m72.46 66.04c0 19.73-15.99 35.72-35.72 35.72 -19.73 0-35.72-15.99-35.72-35.72 0-19.73 15.99-35.72 35.72-35.72 19.73 0 35.72 15.99 35.72 35.72z"/><path fill="#b7b9bc" id="path53" d="m72.4 66.02c0 19.67-15.94 35.61-35.61 35.61 -19.67 0-35.61-15.94-35.61-35.61 0-19.67 15.94-35.62 35.61-35.62 19.67 0 35.61 15.94 35.61 35.62z"/><path fill="#b7b9bc" id="path55" d="m72.33 66c0 19.61-15.9 35.5-35.51 35.5 -19.61 0-35.5-15.9-35.5-35.5 0-19.61 15.89-35.51 35.5-35.51 19.61 0 35.51 15.9 35.51 35.51z"/><path fill="#b8babc" id="path57" d="m72.3 65.98c0 19.57-15.86 35.43-35.43 35.43 -19.57 0-35.43-15.86-35.43-35.43 0-19.57 15.86-35.43 35.43-35.43 19.57 0 35.43 15.86 35.43 35.43z"/><path fill="#b9bbbd" id="path59" d="m72.28 65.96c0 19.52-15.83 35.35-35.35 35.35 -19.53 0-35.35-15.83-35.35-35.35 0-19.53 15.83-35.36 35.35-35.36 19.53 0 35.35 15.83 35.35 35.36z"/><path fill="#babcbe" id="path61" d="m72.25 65.94c0 19.48-15.79 35.28-35.28 35.28 -19.48 0-35.28-15.79-35.28-35.28 0-19.49 15.79-35.28 35.28-35.28 19.48 0 35.28 15.79 35.28 35.28z"/><path fill="#bbbdbf" id="path63" d="m72.23 65.93c0 19.44-15.76 35.2-35.2 35.2 -19.44 0-35.2-15.76-35.2-35.2 0-19.45 15.76-35.21 35.2-35.21 19.44 0 35.2 15.76 35.2 35.21z"/><path fill="#bcbdc0" id="path65" d="m72.21 65.91c0 19.4-15.73 35.12-35.12 35.12 -19.4 0-35.12-15.73-35.12-35.12 0-19.4 15.72-35.13 35.12-35.13 19.4 0 35.13 15.73 35.13 35.13z"/><path fill="#bcbec0" id="path67" d="m72.18 65.89c0 19.36-15.69 35.05-35.05 35.05 -19.36 0-35.05-15.69-35.05-35.05 0-19.36 15.69-35.05 35.05-35.05 19.36 0 35.05 15.69 35.05 35.05z"/><path fill="#bdbfc1" id="path69" d="m72.16 65.87c0 19.31-15.66 34.97-34.97 34.97 -19.32 0-34.97-15.66-34.97-34.97 0-19.32 15.66-34.98 34.97-34.98 19.31 0 34.97 15.66 34.97 34.98z"/><path fill="#bec0c2" id="path71" d="m72.13 65.85c0 19.27-15.62 34.9-34.9 34.9 -19.27 0-34.9-15.62-34.9-34.9 0-19.28 15.62-34.9 34.9-34.9 19.27 0 34.9 15.62 34.9 34.9z"/><path fill="#bfc1c3" id="path73" d="m72.11 65.83c0 19.23-15.59 34.82-34.82 34.82 -19.23 0-34.82-15.59-34.82-34.82 0-19.24 15.59-34.82 34.82-34.82 19.23 0 34.82 15.59 34.82 34.82z"/><path fill="#c0c2c4" id="path75" d="m72.08 65.81c0 19.19-15.56 34.74-34.74 34.74 -19.19 0-34.75-15.55-34.75-34.74 0-19.19 15.56-34.75 34.75-34.75 19.19 0 34.74 15.56 34.74 34.75z"/><path fill="#c1c2c4" id="path77" d="m72.06 65.79c0 19.15-15.52 34.67-34.67 34.67 -19.15 0-34.67-15.52-34.67-34.67 0-19.15 15.52-34.67 34.67-34.67 19.15 0 34.67 15.52 34.67 34.67z"/><path fill="#c1c3c5" id="path79" d="m72.03 65.77c0 19.1-15.49 34.59-34.59 34.59 -19.11 0-34.59-15.49-34.59-34.59 0-19.11 15.49-34.6 34.59-34.6 19.1 0 34.59 15.49 34.59 34.6z"/><path fill="#c2c4c6" id="path81" d="m72.01 65.75c0 19.06-15.45 34.51-34.52 34.51 -19.06 0-34.52-15.45-34.52-34.51 0-19.07 15.45-34.52 34.52-34.52 19.06 0 34.52 15.45 34.52 34.52z"/><path fill="#c3c5c7" id="path83" d="m71.99 65.73c0 19.02-15.42 34.44-34.44 34.44 -19.02 0-34.44-15.42-34.44-34.44 0-19.02 15.42-34.44 34.44-34.44 19.02 0 34.44 15.42 34.44 34.44z"/><path fill="#c4c6c8" id="path85" d="m71.96 65.72c0 18.98-15.39 34.36-34.36 34.36 -18.98 0-34.36-15.39-34.36-34.36 0-18.98 15.38-34.37 34.36-34.37 18.98 0 34.36 15.39 34.36 34.37z"/><path fill="#c5c6c8" id="path87" d="m71.94 65.7c0 18.94-15.35 34.29-34.29 34.29 -18.94 0-34.29-15.35-34.29-34.29 0-18.94 15.35-34.29 34.29-34.29 18.94 0 34.29 15.35 34.29 34.29z"/><path fill="#c5c7c9" id="path89" d="m71.91 65.68c0 18.9-15.32 34.21-34.21 34.21 -18.9 0-34.21-15.32-34.21-34.21 0-18.9 15.32-34.22 34.21-34.22 18.89 0 34.21 15.32 34.21 34.22z"/><path fill="#c6c8ca" id="path91" d="m71.89 65.66c0 18.85-15.28 34.14-34.14 34.14 -18.85 0-34.14-15.28-34.14-34.14 0-18.86 15.28-34.14 34.14-34.14 18.85 0 34.14 15.28 34.14 34.14z"/><path fill="#c7c9cb" id="path93" d="m71.86 65.64c0 18.81-15.25 34.06-34.06 34.06 -18.81 0-34.06-15.25-34.06-34.06 0-18.82 15.25-34.06 34.06-34.06 18.81 0 34.06 15.25 34.06 34.06z"/><path fill="#c8cacc" id="path95" d="m71.84 65.62c0 18.77-15.22 33.98-33.98 33.98 -18.77 0-33.98-15.21-33.98-33.98 0-18.77 15.21-33.99 33.98-33.99 18.77 0 33.98 15.21 33.98 33.99z"/><path fill="#c9cbcc" id="path97" d="m71.82 65.6c0 18.73-15.18 33.91-33.91 33.91 -18.73 0-33.91-15.18-33.91-33.91 0-18.73 15.18-33.91 33.91-33.91 18.73 0 33.91 15.18 33.91 33.91z"/><path fill="#cacbcd" id="path99" d="m71.79 65.58c0 18.68-15.15 33.83-33.83 33.83 -18.69 0-33.83-15.15-33.83-33.83 0-18.69 15.15-33.84 33.83-33.84 18.68 0 33.83 15.15 33.83 33.84z"/><path fill="#cbccce" id="path101" d="m71.77 65.56c0 18.64-15.11 33.75-33.76 33.75 -18.64 0-33.76-15.11-33.76-33.75 0-18.65 15.11-33.76 33.76-33.76 18.64 0 33.76 15.11 33.76 33.76z"/><path fill="#cbcdcf" id="path103" d="m71.74 65.54c0 18.6-15.08 33.68-33.68 33.68 -18.6 0-33.68-15.08-33.68-33.68 0-18.61 15.08-33.68 33.68-33.68 18.6 0 33.68 15.08 33.68 33.68z"/><path fill="#ccced0" id="path105" d="m71.72 65.53c0 18.56-15.05 33.6-33.6 33.6 -18.56 0-33.6-15.04-33.6-33.6 0-18.56 15.04-33.61 33.6-33.61 18.56 0 33.6 15.04 33.6 33.61z"/><path fill="#cdcfd0" id="path107" d="m71.69 65.51c0 18.52-15.01 33.53-33.53 33.53 -18.52 0-33.53-15.01-33.53-33.53 0-18.52 15.01-33.53 33.53-33.53 18.52 0 33.53 15.01 33.53 33.53z"/><path fill="#cecfd1" id="path109" d="m71.67 65.49c0 18.47-14.98 33.45-33.45 33.45 -18.48 0-33.45-14.98-33.45-33.45 0-18.48 14.98-33.46 33.45-33.46 18.47 0 33.45 14.98 33.45 33.46z"/><path fill="#cfd0d2" id="path111" d="m71.64 65.47c0 18.43-14.94 33.38-33.37 33.38 -18.43 0-33.38-14.94-33.38-33.37 0-18.44 14.94-33.38 33.38-33.38 18.43 0 33.38 14.94 33.38 33.38z"/><path fill="#d0d1d3" id="path113" d="m71.62 65.45c0 18.39-14.91 33.3-33.3 33.3 -18.39 0-33.3-14.91-33.3-33.3 0-18.4 14.91-33.3 33.3-33.3 18.39 0 33.3 14.91 33.3 33.3z"/><path fill="#d0d2d3" id="path115" d="m71.6 65.43c0 18.35-14.88 33.22-33.22 33.22 -18.35 0-33.23-14.87-33.23-33.22 0-18.35 14.88-33.23 33.23-33.23 18.35 0 33.22 14.87 33.22 33.23z"/><path fill="#d1d3d4" id="path117" d="m71.57 65.41c0 18.31-14.84 33.15-33.15 33.15 -18.31 0-33.15-14.84-33.15-33.15 0-18.31 14.84-33.15 33.15-33.15 18.3 0 33.15 14.84 33.15 33.15z"/><path fill="#d2d3d5" id="path119" d="m71.52 65.39c0 18.25-14.79 33.04-33.04 33.04 -18.25 0-33.04-14.79-33.04-33.04 0-18.25 14.79-33.04 33.04-33.04 18.25 0 33.04 14.79 33.04 33.04z"/><path fill="#d3d4d6" id="path121" d="m71.47 65.36c0 18.19-14.75 32.93-32.93 32.93 -18.19 0-32.94-14.74-32.94-32.93 0-18.19 14.75-32.94 32.94-32.94 18.19 0 32.93 14.74 32.93 32.94z"/><path fill="#d4d5d7" id="path123" d="m71.42 65.33c0 18.13-14.7 32.83-32.83 32.83 -18.13 0-32.83-14.7-32.83-32.83 0-18.13 14.7-32.83 32.83-32.83 18.13 0 32.83 14.7 32.83 32.83z"/><path fill="#d5d6d7" id="path125" d="m71.37 65.31c0 18.07-14.65 32.72-32.72 32.72 -18.07 0-32.72-14.65-32.72-32.72 0-18.07 14.65-32.72 32.72-32.72 18.07 0 32.72 14.65 32.72 32.72z"/><path fill="#d5d7d8" id="path127" d="m71.32 65.28c0 18.01-14.6 32.61-32.61 32.61 -18.01 0-32.61-14.6-32.61-32.61 0-18.02 14.6-32.62 32.61-32.62 18.01 0 32.61 14.6 32.61 32.62z"/><path fill="#d6d7d9" id="path129" d="m71.27 65.25c0 17.95-14.55 32.51-32.5 32.51 -17.95 0-32.51-14.55-32.51-32.51 0-17.96 14.55-32.51 32.51-32.51 17.95 0 32.5 14.55 32.5 32.51z"/><path fill="#d7d8da" id="path131" d="m71.22 65.23c0 17.89-14.51 32.4-32.4 32.4 -17.89 0-32.4-14.51-32.4-32.4 0-17.9 14.51-32.4 32.4-32.4 17.89 0 32.4 14.5 32.4 32.4z"/><path fill="#d8d9db" id="path133" d="m71.17 65.2c0 17.83-14.46 32.29-32.29 32.29 -17.84 0-32.29-14.46-32.29-32.29 0-17.84 14.46-32.3 32.29-32.3 17.83 0 32.29 14.46 32.29 32.3z"/><path fill="#d8d9db" id="path135" d="m71.11 65.17c0 17.78-14.41 32.18-32.18 32.18 -17.78 0-32.19-14.41-32.19-32.18 0-17.78 14.41-32.19 32.19-32.19 17.77 0 32.18 14.41 32.18 32.19z"/><path fill="#d9dadb" id="path137" d="m71.06 65.15c0 17.72-14.36 32.08-32.08 32.08 -17.72 0-32.08-14.36-32.08-32.08 0-17.72 14.36-32.08 32.08-32.08 17.72 0 32.08 14.36 32.08 32.08z"/><path fill="#d9dbdc" id="path139" d="m71.01 65.12c0 17.66-14.31 31.97-31.97 31.97 -17.66 0-31.97-14.31-31.97-31.97 0-17.66 14.31-31.98 31.97-31.98 17.66 0 31.97 14.31 31.97 31.98z"/><path fill="#dadcdd" id="path141" d="m70.96 65.09c0 17.6-14.27 31.86-31.86 31.86 -17.6 0-31.87-14.27-31.87-31.86 0-17.6 14.27-31.87 31.87-31.87 17.6 0 31.86 14.27 31.86 31.87z"/><path fill="#dbdcde" id="path143" d="m70.91 65.07c0 17.54-14.22 31.76-31.76 31.76 -17.54 0-31.76-14.22-31.76-31.76 0-17.54 14.22-31.76 31.76-31.76 17.54 0 31.76 14.22 31.76 31.76z"/><path fill="#dcddde" id="path145" d="m70.86 65.04c0 17.48-14.17 31.65-31.65 31.65 -17.48 0-31.65-14.17-31.65-31.65 0-17.48 14.17-31.66 31.65-31.66 17.48 0 31.65 14.17 31.65 31.66z"/><path fill="#dddedf" id="path147" d="m70.81 65.01c0 17.42-14.12 31.54-31.54 31.54 -17.42 0-31.54-14.12-31.54-31.54 0-17.43 14.12-31.55 31.54-31.55 17.42 0 31.54 14.12 31.54 31.55z"/><path fill="#dedfe0" id="path149" d="m70.76 64.99c0 17.36-14.08 31.44-31.44 31.44 -17.36 0-31.44-14.07-31.44-31.44 0-17.37 14.07-31.44 31.44-31.44 17.36 0 31.44 14.07 31.44 31.44z"/><path fill="#dee0e1" id="path151" d="m70.71 64.96c0 17.3-14.03 31.33-31.33 31.33 -17.3 0-31.33-14.03-31.33-31.33 0-17.31 14.03-31.33 31.33-31.33 17.3 0 31.33 14.03 31.33 31.33z"/><path fill="#dfe0e2" id="path153" d="m70.66 64.93c0 17.24-13.98 31.22-31.22 31.22 -17.25 0-31.22-13.98-31.22-31.22 0-17.25 13.98-31.23 31.22-31.23 17.24 0 31.22 13.98 31.22 31.23z"/><path fill="#e0e1e2" id="path155" d="m70.61 64.91c0 17.19-13.93 31.12-31.12 31.12 -17.19 0-31.12-13.93-31.12-31.12 0-17.19 13.93-31.12 31.12-31.12 17.19 0 31.12 13.93 31.12 31.12z"/><path fill="#e1e2e3" id="path157" d="m70.54 64.87c0 17.09-13.85 30.94-30.94 30.94 -17.09 0-30.94-13.85-30.94-30.94 0-17.09 13.85-30.95 30.94-30.95 17.09 0 30.94 13.85 30.94 30.95z"/><path fill="#e2e3e4" id="path159" d="m70.48 64.83c0 16.99-13.78 30.77-30.77 30.77 -16.99 0-30.77-13.77-30.77-30.77 0-17 13.77-30.77 30.77-30.77 16.99 0 30.77 13.78 30.77 30.77z"/><path fill="#e3e4e5" id="path161" d="m70.41 64.79c0 16.9-13.7 30.6-30.6 30.6 -16.9 0-30.6-13.7-30.6-30.6 0-16.9 13.7-30.6 30.6-30.6 16.9 0 30.6 13.7 30.6 30.6z"/><path fill="#e3e4e5" id="path163" d="m70.34 64.75c0 16.8-13.62 30.42-30.42 30.42 -16.8 0-30.42-13.62-30.42-30.42 0-16.81 13.62-30.43 30.42-30.43 16.8 0 30.42 13.62 30.42 30.43z"/><path fill="#e4e5e6" id="path165" d="m70.28 64.71c0 16.71-13.54 30.25-30.25 30.25 -16.71 0-30.25-13.54-30.25-30.25 0-16.71 13.54-30.25 30.25-30.25 16.71 0 30.25 13.54 30.25 30.25z"/><path fill="#e5e6e7" id="path167" d="m70.21 64.67c0 16.61-13.47 30.08-30.08 30.08 -16.61 0-30.08-13.47-30.08-30.08 0-16.61 13.47-30.08 30.08-30.08 16.61 0 30.08 13.47 30.08 30.08z"/><path fill="#e6e7e8" id="path169" d="m70.15 64.63c0 16.52-13.39 29.9-29.91 29.9 -16.51 0-29.9-13.39-29.9-29.9 0-16.52 13.39-29.91 29.9-29.91 16.52 0 29.91 13.39 29.91 29.91z"/><path fill="#e7e8e9" id="path171" d="m70.08 64.59c0 16.42-13.31 29.73-29.73 29.73 -16.42 0-29.73-13.31-29.73-29.73 0-16.42 13.31-29.73 29.73-29.73 16.42 0 29.73 13.31 29.73 29.73z"/><path fill="#e7e8e9" id="path173" d="m70.01 64.55c0 16.32-13.23 29.56-29.56 29.56 -16.32 0-29.56-13.23-29.56-29.56 0-16.33 13.23-29.56 29.56-29.56 16.33 0 29.56 13.23 29.56 29.56z"/><path fill="#e8e8e9" id="path175" d="m69.95 64.51c0 16.23-13.16 29.38-29.38 29.38 -16.23 0-29.38-13.16-29.38-29.38 0-16.23 13.16-29.39 29.38-29.39 16.23 0 29.38 13.16 29.38 29.39z"/><path fill="#e9e9ea" id="path177" d="m69.88 64.47c0 16.13-13.08 29.21-29.21 29.21 -16.13 0-29.21-13.08-29.21-29.21 0-16.14 13.08-29.21 29.21-29.21 16.13 0 29.21 13.08 29.21 29.21z"/><path fill="#e9eaeb" id="path179" d="m69.82 64.43c0 16.04-13 29.04-29.04 29.04 -16.04 0-29.04-13-29.04-29.04 0-16.04 13-29.04 29.04-29.04 16.04 0 29.04 13 29.04 29.04z"/><path fill="#eaebec" id="path181" d="m69.75 64.39c0 15.94-12.92 28.87-28.87 28.87 -15.94 0-28.86-12.92-28.86-28.87 0-15.95 12.92-28.87 28.86-28.87 15.94 0 28.87 12.92 28.87 28.87z"/><path fill="#ebeced" id="path183" d="m69.68 64.35c0 15.85-12.84 28.69-28.69 28.69 -15.84 0-28.69-12.85-28.69-28.69 0-15.85 12.85-28.7 28.69-28.7 15.85 0 28.69 12.85 28.69 28.7z"/><path fill="#eceded" id="path185" d="m69.62 64.31c0 15.75-12.77 28.52-28.52 28.52 -15.75 0-28.52-12.77-28.52-28.52 0-15.75 12.77-28.52 28.52-28.52 15.75 0 28.52 12.77 28.52 28.52z"/><path fill="#ededee" id="path187" d="m69.55 64.27c0 15.65-12.69 28.35-28.35 28.35 -15.65 0-28.34-12.69-28.34-28.35 0-15.66 12.69-28.35 28.34-28.35 15.66 0 28.35 12.69 28.35 28.35z"/><path fill="#eeeeef" id="path189" d="m69.36 64.21c0 15.47-12.54 28.01-28.01 28.01 -15.47 0-28.01-12.54-28.01-28.01 0-15.47 12.54-28.01 28.01-28.01 15.47 0 28.01 12.54 28.01 28.01z"/><path fill="#eeeff0" id="path191" d="m69.17 64.14c0 15.28-12.39 27.68-27.67 27.68 -15.28 0-27.67-12.39-27.67-27.68 0-15.29 12.39-27.68 27.67-27.68 15.29 0 27.67 12.39 27.67 27.68z"/><path fill="#eff0f0" id="path193" d="m68.99 64.08c0 15.1-12.24 27.34-27.34 27.34 -15.1 0-27.34-12.24-27.34-27.34 0-15.1 12.24-27.34 27.34-27.34 15.1 0 27.34 12.24 27.34 27.34z"/><path fill="#f0f1f1" id="path195" d="m68.8 64.01c0 14.91-12.09 27.01-27 27.01 -14.91 0-27-12.09-27-27.01 0-14.92 12.09-27.01 27-27.01 14.92 0 27 12.09 27 27.01z"/><path fill="#f1f1f2" id="path197" d="m68.61 63.94c0 14.73-11.94 26.67-26.67 26.67 -14.73 0-26.67-11.94-26.67-26.67 0-14.73 11.94-26.67 26.67-26.67 14.73 0 26.67 11.94 26.67 26.67z"/><path fill="#f2f2f3" id="path199" d="m68.42 63.88c0 14.54-11.79 26.34-26.33 26.34 -14.54 0-26.33-11.79-26.33-26.34 0-14.55 11.79-26.34 26.33-26.34 14.54 0 26.33 11.79 26.33 26.34z"/><path fill="#f3f3f3" id="path201" d="m68.23 63.81c0 14.36-11.64 26-26 26 -14.36 0-26-11.64-26-26 0-14.36 11.64-26 26-26 14.36 0 26 11.64 26 26z"/><path fill="#f3f4f4" id="path203" d="m68.04 63.75c0 14.17-11.49 25.67-25.66 25.67 -14.17 0-25.66-11.49-25.66-25.67 0-14.18 11.49-25.67 25.66-25.67 14.17 0 25.66 11.49 25.66 25.67z"/><path fill="#f3f4f4" id="path205" d="m67.85 63.68c0 13.99-11.34 25.33-25.33 25.33 -13.99 0-25.33-11.34-25.33-25.33 0-13.99 11.34-25.33 25.33-25.33 13.99 0 25.33 11.34 25.33 25.33z"/><path fill="#f4f5f5" id="path207" d="m67.66 63.62c0 13.8-11.19 25-24.99 25 -13.8 0-25-11.19-25-25 0-13.81 11.19-25 25-25 13.8 0 24.99 11.19 24.99 25z"/><path fill="#f5f6f6" id="path209" d="m67.48 63.55c0 13.62-11.04 24.66-24.66 24.66 -13.62 0-24.66-11.04-24.66-24.66 0-13.62 11.04-24.67 24.66-24.67 13.62 0 24.66 11.04 24.66 24.67z"/><path fill="#f6f6f7" id="path211" d="m67.24 63.46c0 13.36-10.83 24.19-24.18 24.19 -13.36 0-24.19-10.83-24.19-24.19 0-13.36 10.83-24.19 24.19-24.19 13.36 0 24.18 10.83 24.18 24.19z"/><path fill="#f7f7f8" id="path213" d="m67.01 63.36c0 13.1-10.62 23.71-23.71 23.71 -13.09 0-23.71-10.62-23.71-23.71 0-13.1 10.62-23.72 23.71-23.72 13.1 0 23.71 10.62 23.71 23.72z"/><path fill="#f8f8f9" id="path215" d="m66.77 63.27c0 12.83-10.4 23.24-23.24 23.24 -12.83 0-23.24-10.4-23.24-23.24 0-12.84 10.4-23.24 23.24-23.24 12.83 0 23.24 10.4 23.24 23.24z"/><path fill="#f9f9fa" id="path217" d="m66.54 63.17c0 12.57-10.19 22.76-22.76 22.76 -12.57 0-22.76-10.19-22.76-22.76 0-12.58 10.19-22.77 22.76-22.77 12.57 0 22.76 10.19 22.76 22.77z"/><path fill="#fafbfb" id="path219" d="m66.3 63.08c0 12.31-9.98 22.29-22.29 22.29 -12.31 0-22.29-9.98-22.29-22.29 0-12.31 9.98-22.29 22.29-22.29 12.31 0 22.29 9.98 22.29 22.29z"/><path fill="#fafbfb" id="path221" d="m66.07 62.98c0 12.05-9.77 21.81-21.82 21.81 -12.05 0-21.81-9.77-21.81-21.81 0-12.05 9.77-21.82 21.81-21.82 12.05 0 21.82 9.77 21.82 21.82z"/><path fill="#fcfcfc" id="path223" d="m65.75 62.91c0 11.8-9.57 21.37-21.37 21.37 -11.8 0-21.37-9.57-21.37-21.37 0-11.81 9.57-21.37 21.37-21.37 11.8 0 21.37 9.57 21.37 21.37z"/><path fill="#fdfdfd" id="path225" d="m65.43 62.84c0 11.56-9.37 20.93-20.93 20.93 -11.56 0-20.93-9.37-20.93-20.93 0-11.56 9.37-20.93 20.93-20.93 11.56 0 20.93 9.37 20.93 20.93z"/><path fill="#fdfdfd" id="path227" d="m65.11 62.77c0 11.31-9.17 20.48-20.48 20.48 -11.31 0-20.48-9.17-20.48-20.48 0-11.32 9.17-20.49 20.48-20.49 11.31 0 20.48 9.17 20.48 20.49z"/><path fill="#ffffff" id="path229" d="m64.79 62.7c0 11.07-8.97 20.04-20.04 20.04 -11.07 0-20.04-8.97-20.04-20.04 0-11.07 8.97-20.04 20.04-20.04 11.07 0 20.04 8.97 20.04 20.04z"/></g><g id="g5"><path id="path7" d="m58.01 139.42l-4.31-4.46c-0.13-0.1-0.18-0.32-0.06-0.48 0.01-0.01 3.29-5.54 3.29-5.54 0.07-0.16 0.08-0.26 0.08-0.32 0-0.35-0.29-0.64-0.64-0.64l-2.41 0c-0.25 0-0.46 0.13-0.57 0.33l-2.09 3.6c-0.1 0.14-0.3 0.18-0.46 0.07 0 0-3.37-3.46-3.37-3.46 -0.05-0.06-0.08-0.14-0.08-0.21 0-0.08 0.04-0.17 0.11-0.24l0.04-0.04c1.9-1.11 4.07-2.74 4.07-5.6 0-3.3-2.37-5.51-5.89-5.51 -3.45 0-6.07 2.31-6.07 5.75 0 1.52 0.63 3.03 1.94 4.62l0.03 0.04c0.05 0.06 0.08 0.15 0.07 0.23 -0.01 0.09-0.06 0.17-0.12 0.22 -2.87 1.63-4.32 3.79-4.32 6.43 0 4.48 3.75 6.83 7.46 6.83 2.54 0 4.53-0.98 6.44-3.17 0.01-0.01 0.04-0.05 0.04-0.05 0.11-0.11 0.32-0.11 0.45 0.02l2.32 2.4c0 0 0.06 0.06 0.06 0.06 0.13 0.12 0.29 0.19 0.46 0.19l3.06 0c0.36 0 0.64-0.29 0.64-0.64 0-0.17-0.07-0.32-0.18-0.44l0 0zm-12.22-19.17c1.45 0 2.23 1 2.23 2.22 0 1.43-1.27 2.25-2.81 3.11l-0.08 0.03c-0.12 0.07-0.28 0.04-0.37-0.06 -0.01-0.01-0.04-0.04-0.04-0.04 -0.67-0.73-1.45-1.89-1.45-2.73 0-1.42 1.02-2.53 2.52-2.53zm3.09 15.22l-0.01 0.02c-1.11 1.32-2.34 2.21-4.11 2.21 -2.11 0-3.76-1.52-3.76-3.46 0-1.71 0.73-2.73 2.9-4.04 0.15-0.09 0.32-0.07 0.43 0.03l4.52 4.74c0.08 0.08 0.12 0.16 0.12 0.24 0 0 0 0.01 0 0.01 0 0.08-0.02 0.16-0.09 0.24z"/><path id="path9" d="m34.41 137.65c0 0-0.14 0-0.14 0 -3.47 0-5.22-1.84-5.22-5.46l0-10.66c0-0.18 0.15-0.33 0.34-0.33l5.43 0c0.35 0 0.65-0.29 0.65-0.65l0-2.37c0-0.36-0.29-0.65-0.65-0.65l-5.41 0c-0.19 0-0.36-0.15-0.36-0.35l0-4.9c0.02-0.35-0.26-0.65-0.62-0.67l-0.07 0c0 0-2.78 0.22-2.78 0.22 -0.34 0-0.64 0.28-0.64 0.64l0 4.72c0 0.19-0.15 0.33-0.34 0.33l-3.41 0c-0.36 0-0.65 0.29-0.65 0.64l-0.01 2.38c0.01 0.18 0.08 0.34 0.2 0.45 0.13 0.12 0.29 0.19 0.46 0.19l3.4 0c0.19 0 0.34 0.15 0.34 0.33l0 11.38c0 6.11 4.6 8.29 8.63 8.29 0 0 0.48 0.01 0.84-0.03 0.36-0.04 0.64-0.29 0.64-0.65l0-2.23c0-0.35-0.29-0.64-0.65-0.64z"/><path id="path11" d="m18.87 139.57c-0.22-0.62-0.28-1.3-0.3-1.6 -0.01-0.22-0.02-1.12-0.02-1.12l0-11.27c0-5.95-4.21-8.07-8.15-8.07 -3.12 0-5.96 0.81-7.79 2.04 -0.15 0.1-0.25 0.25-0.29 0.41 -0.03 0.17 0 0.33 0.09 0.47 0.01 0.02 1.45 1.96 1.45 1.96 0.2 0.28 0.6 0.35 0.88 0.14 -0.01 0 0.2-0.13 0.2-0.13 1.43-0.89 3.12-1.4 4.84-1.4 4.86 0 4.72 3.81 4.72 4.3 0 0.25-0.15 0.31-0.33 0.31 0 0-0.75-0.02-0.75-0.02 -3.77-0.14-13.34 1.15-13.34 8.73 0 4.46 3.71 6.73 7.18 6.73 3.36 0 6.06-1.33 7.41-2.96l0.01-0.02c0.02-0.02 0.04-0.03 0.07-0.03 0.04 0 0.08 0.04 0.08 0.08 0 0.21 0 0.68 0.05 1.09 0.03 0.37 0.08 0.64 0.14 0.84 0.05 0.18 0.17 0.36 0.34 0.44 0.08 0.04 0.18 0.07 0.27 0.07 0 0 2.69 0 2.69 0 0.35 0 0.64-0.28 0.64-0.62 0-0.11-0.09-0.39-0.09-0.39zm-4.19-8.82c-0.55 3.89-2.46 6.13-6 6.71 -2.49 0.41-4.74-0.62-4.86-3.28 -0.13-2.93 3.27-5.39 9.55-5.12 0 0 0.46 0.03 0.77 0.06 0.28 0.03 0.45 0.12 0.55 0.28 0.1 0.15 0.12 0.46-0.01 1.34z"/><path id="path13" d="m70.96 137.65c0 0-0.14 0-0.14 0 -3.46 0-5.22-1.84-5.22-5.46l0-10.66c0-0.18 0.16-0.33 0.34-0.33l5.43 0c0.36 0 0.65-0.29 0.65-0.65l0-2.37c0-0.36-0.29-0.65-0.65-0.65l-5.41 0c-0.2 0-0.36-0.15-0.36-0.35l0-4.9c0.02-0.35-0.26-0.65-0.62-0.67l-0.07 0c0 0-2.78 0.22-2.78 0.22 -0.34 0-0.63 0.28-0.63 0.64l0 4.72c0 0.19-0.15 0.33-0.34 0.33l-3.41 0c-0.36 0-0.65 0.29-0.65 0.64l-0.01 2.38c0.01 0.18 0.08 0.34 0.2 0.45 0.13 0.12 0.29 0.19 0.46 0.19l3.4 0c0.18 0 0.34 0.15 0.34 0.33l0 11.38c0 6.11 4.59 8.29 8.63 8.29 0 0 0.48 0.01 0.84-0.03 0.36-0.04 0.63-0.29 0.63-0.65l0-2.23c0-0.35-0.29-0.64-0.65-0.64z"/></g><path fill="#32a5dd" id="path21" d="m2.95 54.17c0-1.54 0.22-2.62 0.64-3.59 0.7-1.43 1.48-2.82 2.36-4.14 -0.22 0.38-0.36 0.81-0.36 1.31 0 3.35 8.2 7.7 19.39 9.13 3.79 0.48 13.83 1.85 21.61 1.21 15.69-1.29 19.18-6.77 19.18-10.34 0-0.97-0.53-2.4-1.06-3.22 0.71 0.94 1.38 1.92 2 2.93 1.2 2.09 1.05 2.92 1.05 3.28 0 7.28-13.54 12.02-22.6 14.5 -23.24 6.35-42.21-2.3-42.21-11.08zm7.42-10.2c0 3.28 4.78 8.53 18.61 8.53 8.2 0 14.82-1.59 19.82-3.25 8.01-2.66 11.98-5.92 11.84-8.34 -0.02-0.38-0.17-0.99-0.62-1.47 -1.78-1.59-3.72-3.01-5.79-4.23 1.37 0.8 2.14 1.72 2.14 2.75 0 3.61-8.83 6.93-20.36 7.22 -11.53 0.3-21.08-2.54-21.34-6.15 -0.09-1.19 0.78-2.37 2.41-3.41 -1.25 0.77-2.44 1.62-3.58 2.53 -3.21 2.66-3.14 5.47-3.14 5.82zm30.01 42.36c-7.02 0.25-19.38-2.17-27.16-5.35 -6.27-2.56-12.46-7.54-13.13-12.29 0.08 1.14 0.2 2.27 0.39 3.38 3.84 20.95 30.23 19.75 34.78 19.25 33.19-3.68 36.05-17.85 36.49-20.65 0.07-0.58 0.13-1.17 0.17-1.76 -0.59 3.73-6.2 16.52-31.53 17.42zm-25.24 4.78c-5.96-2.46-10.08-6.56-11.73-9.55 1.52 3.23 3.51 6.21 5.89 8.83 7.76 7.29 19.69 8.17 25.17 8.17 23.2 0 31.49-12.19 33.36-15.46 0.35-0.65 0.67-1.32 0.98-2 -3.67 7.56-22.71 22.78-53.66 9.99zm56.18-30.47c0-0.58-0.07-1.73-0.34-2.92 -0.19-0.8-0.42-1.59-0.66-2.37 0.44 1.46 0.37 2.49 0.37 2.88 0 1.79-2.22 12.71-24.03 14.69 -1.89 0.17-15.74 0.38-27.79-2.66 -8.01-2.03-16.06-5.95-17.58-11.39 -0.24-0.85-0.13-1.63 0.05-2.37l0 0c-0.61 2.18-1.02 4.44-1.21 6.77 0.14 5.73 5.11 12.41 14.23 15.28 10.41 3.28 16.8 3.38 31.94 0.01 25.27-5.63 25.03-16.7 25.03-17.93z"/><path fill="#0096d7" id="path23" d="m45.16 65.25c0.61-0.17 1.25-0.35 1.9-0.54 -2.79-0.6-5.76-0.92-8.83-0.92 -5.83 0-11.28 1.16-15.87 3.17 6.58 0.92 14.41 0.58 22.8-1.71zm-2.98-14.17c2.45-0.54 4.66-1.18 6.61-1.83 1.07-0.36 2.06-0.72 2.99-1.09 -2.75-0.5-5.19-0.82-6.84-0.97 -6.27-0.57-15.61 1.21-18.04 1.71 -0.75 0.15-4.16 0.86-8.31 2.31 0.98 0.29 2.05 0.54 3.24 0.74 3.76-1.06 7.66-1.65 11.35-1.65 2.45 0 5.58 0.26 8.99 0.78zm0.72 21.93c-2.29-0.01-5.4-0.11-8.91-0.38 -6.22 0.73-11.51 3.5-14.52 7.35 1 0.23 1.97 0.42 2.95 0.58 3.17-3.48 8.54-5.77 14.62-5.77 4.44 0 8.5 1.22 11.6 3.23 1.21-0.3 2.35-0.62 3.44-0.95 -2.47-1.9-5.62-3.32-9.17-4.06zm20.42-15.36c1.81-1.34 3.21-2.82 3.92-4.46 -0.87-0.54-1.86-1.04-2.92-1.5 -1.06 1.35-2.79 2.7-5.49 3.82 1.59 0.65 3.1 1.36 4.5 2.14zm-7.97 4.24c1.91-0.77 3.75-1.64 5.41-2.58 -1.72-0.92-3.73-1.75-6.06-2.46 -2.25 0.56-4.93 0.99-8.12 1.25 -0.95 0.08-1.93 0.13-2.93 0.15 2.23 0.43 4.36 1 6.38 1.66 1.95 0.64 3.71 1.31 5.31 1.98zm4.25 8.17c-1.6 0.65-3.44 1.23-5.53 1.72 1.52 0.92 2.89 1.96 4.07 3.1 1.71-0.74 3.19-1.5 4.48-2.28 -0.91-0.9-1.92-1.75-3.02-2.54zm-47.04-16.35c-2.81 1.38-5.57 3.09-7.78 5.19 0.34 0.43 0.72 0.85 1.14 1.26 2.42-2.14 5.47-4.05 8.84-5.61 -0.77-0.27-1.51-0.55-2.2-0.84zm8.97 17.17c-0.89-0.19-1.78-0.39-2.66-0.62 -0.56-0.14-1.12-0.29-1.67-0.45 -2.92 2.02-5.23 4.46-6.74 7.17 0.92 0.46 1.9 0.88 2.94 1.25 0.87-1.55 2.03-2.98 3.46-4.24 1.35-1.19 2.92-2.23 4.67-3.12zm-10.08 14.76c0-1.72 0.3-3.42 0.88-5.04 -0.97-0.43-1.93-0.92-2.87-1.45 -0.62 1.65-0.95 3.38-0.95 5.17 0 0.35 0.02 0.7 0.04 1.05 0.96 0.72 1.96 1.35 3 1.92 -0.07-0.54-0.11-1.09-0.11-1.64zm19.57-28.04c-2.54-0.27-4.68-0.55-6.03-0.72 -0.87-0.11-1.73-0.24-2.57-0.38 -4.84 1.54-9.09 3.85-12.41 6.61 0.68 0.37 1.39 0.73 2.15 1.06 4.83-3.51 11.43-5.91 18.86-6.57zm-10.11 35.62c-0.99-0.32-2-0.66-3.02-1.04 0.82 1.75 2.07 3.34 3.66 4.73 1.32 0.37 2.63 0.65 3.9 0.88 -1.93-1.25-3.49-2.81-4.54-4.57zm49.57-37.36c-0.04-0.12-0.08-0.24-0.11-0.37 0.03 0.1 0.05 0.19 0.07 0.29 0.01 0.03 0.03 0.05 0.04 0.08zm-65.58 17.21c0.89-2.3 2.35-4.45 4.27-6.36 -0.64-0.33-1.26-0.68-1.85-1.05 -1.69 1.85-2.99 3.84-3.82 5.88 0.43 0.52 0.89 1.03 1.4 1.53zm59.83-5.79c0.85 0.71 1.58 1.41 2.19 2.11 0.89-0.83 1.6-1.65 2.16-2.43 -0.42-0.72-0.92-1.46-1.51-2.19 -0.76 0.84-1.69 1.69-2.84 2.51zm-55.85 20.25c0.31 1.31 0.8 2.57 1.45 3.79 1.28 1.06 2.65 1.98 4.08 2.76 -1.04-1.39-1.83-2.88-2.33-4.45 -1.16-0.65-2.22-1.36-3.19-2.09zm41.92 8.59c1.69-0.57 3.23-1.22 4.63-1.91 0.54-0.76 0.99-1.55 1.34-2.38 -1.17 0.58-2.42 1.13-3.75 1.63 -0.6 0.96-1.35 1.85-2.23 2.66zm3.22-11.77c0.33 0.86 0.54 1.77 0.62 2.69 1.05-0.39 2.04-0.81 2.96-1.23 -0.12-0.83-0.33-1.64-0.63-2.43 -0.93 0.34-1.91 0.67-2.95 0.96zm6.41-42.32c-1.65-0.57-3.62-1-5.81-1.29 -2.57 1.96-7.75 3.56-14.2 4.19 4.06 0.41 9 1.11 13.72 2.21 3.57-1.72 5.67-3.53 6.3-5.11zm-45.44-1.99c-1.62 0.68-3.07 1.38-4.31 2.07 -0.22 0.67-0.28 1.21-0.3 1.54 1.59-0.82 3.49-1.66 5.61-2.47 -0.44-0.36-0.77-0.74-0.99-1.14zm-12.46 21.4c-0.93 1.29-1.65 2.69-2.08 4.22 0.11 0.47 0.25 0.94 0.43 1.41 0.54-1.53 1.44-3.02 2.62-4.44 -0.36-0.39-0.68-0.78-0.97-1.19zm1.36 16.95c0-1.03 0.11-2.04 0.32-3.03 -0.52-0.48-1.01-0.98-1.45-1.49 -0.33 1.46-0.42 2.93-0.24 4.39 0.47 0.93 1 1.79 1.58 2.6 -0.14-0.82-0.21-1.64-0.21-2.47zm9.07-29.97c3.8-1.73 8.46-3.1 13.95-3.67 -1.88-0.24-3.62-0.58-5.15-0.99 -3.6 1-6.99 2.19-9.94 3.57 0.32 0.37 0.7 0.74 1.14 1.09zm54.13 31c-0.19-0.54-0.41-1.07-0.67-1.59 -1.16 1.05-2.54 2.1-4.18 3.07 0.25 0.66 0.46 1.34 0.6 2.03 1.73-1.16 3.13-2.35 4.25-3.51zm3.88-7.63c-0.34 0.73-0.78 1.53-1.35 2.37 0.15 0.53 0.25 1.03 0.31 1.52 0.59-1.02 0.98-1.95 1.25-2.75 -0.05-0.36-0.12-0.74-0.21-1.14zm0.03-13.98c-0.08-0.34-0.17-0.68-0.26-1.02 -0.05-0.12-0.11-0.24-0.17-0.35 0.15 0.9 0.12 1.53 0.12 1.82 0 0.58-0.24 2.15-1.32 4.06 0.5 0.58 0.93 1.17 1.3 1.79 0.69-1.78 0.67-3.07 0.67-3.45 0-0.57-0.07-1.69-0.33-2.85zm-51.61 30.11c0-1.58 0.38-3.11 1.07-4.51 -0.89-0.24-1.77-0.5-2.62-0.76 -0.68 1.49-1.05 3.08-1.05 4.74 0 0.75 0.08 1.48 0.22 2.2 0.89 0.28 1.78 0.52 2.67 0.73 -0.19-0.77-0.29-1.57-0.29-2.39zm43.54 0c-0.09 0.52-0.21 1.03-0.37 1.53 2.94-2.61 4.54-5.08 5.24-6.3 0.03-0.04 0.05-0.09 0.07-0.14 -0.01-0.09-0.02-0.17-0.03-0.26 -1.1 1.62-2.75 3.42-4.93 5.17zm-6.61-50.38c1.44 0.59 2.75 1.31 3.91 2.2 -0.06-0.09-0.12-0.18-0.2-0.26 -1.16-1.04-2.38-2.01-3.67-2.89 -0.33-0.2-0.67-0.39-1.03-0.57 0.53 0.48 0.87 0.99 0.99 1.53zm-50.4 8.96c-0.1 0.15-0.2 0.31-0.3 0.46 0.05-0.07 0.11-0.13 0.17-0.2 0.04-0.09 0.08-0.18 0.13-0.26zm58.98 4.34c0.96 0.5 1.84 1.04 2.61 1.62 0.17-0.55 0.25-1.11 0.25-1.69 0-0.36 0.15-1.17-1.01-3.21 -0.62-1.02-1.29-2-2-2.95 -0.01-0.01-0.02-0.02-0.03-0.03 0.52 0.83 1.04 2.23 1.04 3.19 0 0.93-0.24 1.99-0.87 3.07zm-56.94 0.35c-0.45-0.34-0.84-0.68-1.17-1.03 -1.55 1.07-2.85 2.22-3.83 3.44 -0.01 0.19-0.01 0.39-0.01 0.59 0 0.38 0.04 0.77 0.11 1.15 1.2-1.34 2.84-2.78 4.9-4.15zm-4.54 30.42c0.84 1.78 1.81 3.47 2.92 5.07 -0.6-0.96-1.09-1.95-1.48-2.98 -0.59-0.73-1.07-1.44-1.44-2.09zm-2.1-25.01c-0.22 0.81-0.42 1.63-0.59 2.46 0.09-0.32 0.23-0.67 0.42-1.04 -0.02-0.49 0.06-0.96 0.17-1.42zm-1 13.16c-0.11-0.35-0.18-0.7-0.23-1.04 0.06 0.88 0.15 1.75 0.27 2.61 -0.06-0.53-0.07-1.05-0.04-1.57z"/></g></svg>